<?xml version="1.0" encoding="UTF-8" standalone="no"?><!DOCTYPE svg PUBLIC "-//W3C//DTD SVG 1.1//EN" "http://www.w3.org/Graphics/SVG/1.1/DTD/svg11.dtd"><svg width="100%" height="100%" viewBox="0 0 1750 425" version="1.1" xmlns="http://www.w3.org/2000/svg" xmlns:xlink="http://www.w3.org/1999/xlink" xml:space="preserve" xmlns:serif="http://www.serif.com/" style="fill-rule:evenodd;clip-rule:evenodd;stroke-linejoin:round;stroke-miterlimit:2;"><g><path d="M1588.46,425.015l-302.1,-425.015l123.184,0l302.136,425.015l-123.22,-0Z" style="fill:#00a7e1;"/><path d="M1465.23,425.015l-302.1,-425.015l123.229,0l302.1,425.015l-123.229,-0Z" style="fill:#3d9b00;"/><path d="M1342,425.015l-302.099,-425.015l123.233,0l302.1,425.015l-123.234,-0Z" style="fill:#ffc610;"/><path d="M1218.8,425.015l-302.133,-425.015l123.229,0l302.099,425.015l-123.195,-0Z" style="fill:#ff1f1f;"/><path d="M327.333,121.75l0,168.542l50.834,-0l-0,-168.542l-50.834,-0Zm1014.62,-0l0,168.542l50.838,-0l-0,-168.542l-50.838,-0Zm-362.412,-55.083l-0,223.666l50.833,0l0,-223.666l-50.833,-0Zm-587.963,55.083l0,168.542l50.833,-0l0,-128.292l178.917,0l0,128.292l50.788,-0l-0,-168.542l-280.538,-0Zm1295.17,-0l-280.542,-0l0,168.542l50.792,-0l-0,-128.292l229.75,0l-0,-40.25Zm-1653.41,104.417l229.334,-0l-0,23.958l-229.334,0l0,40.171l280.084,-0l-0,-104.338l-229.667,0l-0,-23.958l230.079,0l0,-40.25l-280.496,-0l0,104.417Zm652.209,-104.417l-0,168.542l280.541,-0l0,-40.171l-229.712,-0l-0,-88.121l229.712,-0l0,-40.25l-280.541,-0Zm409.083,128.371l-0,-23.959l181.167,0l-0,23.959l-181.167,-0Zm-50.875,-128.371l-0,40.25l232,-0l0,23.958l-232,0l-0,104.334l284.796,-0l-0,-168.542l-284.796,-0Zm-716.417,-55.083l0,40.208l50.834,-0l-0,-40.208l-50.834,-0Zm1014.58,-0l-0,40.208l50.833,-0l-0,-40.208l-50.833,-0Z" style="fill:#fff;"/><path d="M33.333,374.326l0,13.698l66.662,-0l0,-14.587l-43.511,-0l42.386,-50.689l-0,-13.722l-62.206,0l0,14.613l39.078,0l-42.409,50.687Zm97.319,-27.653l-27.725,41.447l19.61,0l17.615,-27.373l17.264,27.373l20.712,0l-27.561,-41.306l25.356,-37.788l-19.047,0l-16.044,25.262l-15.504,-25.262l-20.149,0l25.473,37.647Zm74.943,15.129l-16.842,0.024c-0.211,19.494 16.185,28.124 33.66,28.124c21.485,-0 32.885,-10.858 32.885,-25.38c-0,-17.918 -17.709,-21.577 -23.48,-23.031c-19.82,-5.09 -23.573,-5.864 -23.573,-11.965c0,-6.638 6.404,-8.984 11.963,-8.984c8.28,0 15.035,2.442 15.598,11.965l16.818,0c-0,-18.272 -15.176,-25.452 -31.666,-25.452c-14.261,-0 -29.554,7.743 -29.554,23.927c-0,14.822 11.868,19.399 23.596,22.471c11.611,3.094 23.48,4.527 23.48,13.063c-0,8.069 -9.312,9.851 -15.411,9.851c-9.288,0 -17.474,-4.081 -17.474,-14.613Zm97.506,-2.205c0,9.289 -3.283,18.155 -13.604,18.179c-10.204,-0 -13.745,-8.89 -13.745,-18.179c-0,-9.288 3.33,-18.485 13.604,-18.485c10.086,-0 13.745,9.408 13.745,18.485Zm-42.479,-28.757l0,77.405l15.693,0l-0,-27.258l0.211,0c3.776,5.653 10.32,8.634 17.169,8.634c16.725,0 25.145,-14.261 25.145,-29.557c0,-16.276 -8.092,-30.772 -26.012,-30.772c-7.084,0 -13.276,2.745 -17.053,8.843l-0.211,0l-0,-7.295l-14.942,0Zm102.855,22.45l-25.59,0c0.211,-4.412 3.096,-12.176 13.065,-12.176c7.646,-0.002 11.071,4.199 12.525,12.176Zm-25.59,9.943l41.329,0c1.079,-17.615 -8.303,-33.985 -27.819,-33.985c-17.381,-0 -29.226,13.062 -29.226,30.232c0,17.712 11.165,30.12 29.226,30.12c12.972,0 22.377,-5.747 26.813,-19.257l-13.839,-0c-1.009,3.542 -6.099,7.412 -12.408,7.412c-8.752,-0.003 -13.631,-4.527 -14.076,-14.522Zm86.248,-12.244l15.408,0.024c-0.985,-14.592 -13.394,-21.697 -26.904,-21.697c-18.622,-0 -29.252,13.156 -29.252,30.985c-0,17.193 11.636,29.37 28.898,29.37c15.058,-0 25.59,-8.33 27.56,-23.506l-15.176,0c-0.985,6.967 -5.207,11.634 -12.502,11.634c-9.851,0 -13.062,-9.849 -13.062,-18.035c-0,-8.421 3.305,-18.624 13.391,-18.624c6.525,-0.002 10.63,3.446 11.639,9.849Zm41.163,-20.149l-0,-17.146l-15.737,0l-0,17.17l-9.526,-0l0,10.532l9.526,-0l-0,33.753c-0,11.4 8.444,13.628 18.082,13.628c3.075,-0 6.5,-0.117 9.172,-0.563l-0,-12.289c-1.64,0.329 -3.212,0.446 -4.854,0.446c-5.326,-0 -6.663,-1.337 -6.663,-6.662l-0,-28.36l11.517,-0l-0,-10.509l-11.517,0Zm15.741,0l-0.023,57.257l15.736,-0l0,-25.826c0,-10.086 3.964,-18.363 15.484,-18.363c1.899,-0 4.222,0.211 5.65,0.537l0,-14.611c-0.985,-0.331 -2.32,-0.539 -3.422,-0.539c-7.647,-0 -15.39,4.97 -18.275,12.171l-0.211,-0l0,-10.626l-14.939,0Zm93.425,57.21l0,-57.21l-15.741,0l0,29.998c0,11.613 -3.633,16.373 -12.171,16.373c-7.293,-0 -10.063,-4.621 -10.063,-14.051l0,-32.32l-15.739,0l0,35.184c0,14.166 4.222,23.574 20.946,23.574c6.615,-0 13.511,-3.12 17.475,-9.523l0.35,-0l-0,7.972l14.943,0l0,0.003Zm9.054,-57.21l0,57.184l15.742,-0l-0,-33.212c-0,-11.167 7.527,-13.158 10.623,-13.158c9.969,-0 9.526,7.646 9.526,14.284l-0,32.088l15.736,0l0,-31.877c0,-7.198 1.691,-14.495 10.532,-14.495c8.984,-0 9.64,6.309 9.64,13.956l0,32.51l15.716,0l-0,-38.327c-0,-14.848 -8.773,-20.501 -20.946,-20.501c-7.975,0 -13.933,4.548 -17.266,9.523c-3.118,-6.849 -9.521,-9.523 -16.722,-9.523c-7.412,0 -13.396,3.425 -17.501,9.289l-0.211,-0l0,-7.741l-14.869,0Z" style="fill:#00a7e1;"/></g></svg>